<svg width="135" height="90" viewBox="0 0 135 90" fill="none" xmlns="http://www.w3.org/2000/svg">
<g clip-path="url(#clip0_4086_90119)">
<path d="M63.75 21.1784L47.8 35.8185C46.66 37.1985 43.67 37.0485 43.86 35.1285V25.7984C43.86 24.3584 44.51 23.6684 45.79 23.6985L50.22 25.4884C51.08 25.4884 51.94 25.1084 52.8 24.3584L58.11 19.5184C58.97 18.5485 58.82 18.0184 57.62 17.9084L38.7 12.1484C35.2 11.1985 33.29 13.9984 33.39 17.3284V42.4085C33.39 45.9985 35.59 47.8085 39.98 47.8085H44.5C48.09 47.8085 51.76 46.0584 55.52 42.5485L65.34 33.3185C66.27 32.4485 67.23 32.4585 68.22 33.3385L78.59 42.5385C82.33 46.0485 86 47.7985 89.6 47.7985H94.11C98.52 47.7985 100.72 45.9985 100.72 42.3985V5.64845C100.81 2.31845 99.49 -1.32155 95.41 0.46845L76.31 13.8184C75.41 14.4985 74.28 15.1285 75.77 16.6084L80.89 21.3685C82.16 22.6585 83.02 21.8785 83.88 21.2684L88.31 18.1284C89.58 17.7584 90.24 18.7984 90.24 20.2284V35.1185C90.16 37.3385 87.42 36.9085 86.24 35.8085L69.88 21.1684C69.06 20.4384 68.03 20.0684 66.8 20.0684C65.57 20.0684 64.57 20.4485 63.82 21.1985L63.74 21.1684L63.75 21.1784Z" fill="white"/>
<path d="M21.7302 85.9205C21.5702 88.0305 20.2202 89.0905 17.6802 89.0905H10.0102C7.3002 89.0905 5.9502 87.8805 5.9502 85.4805V79.6005C5.9502 77.1905 7.3002 75.9805 10.0102 75.9805H17.6802C20.3702 75.9805 21.7302 77.0305 21.7302 79.1105V79.1405H11.8102C10.6002 79.1405 10.0002 79.5905 10.0002 80.5005V84.5605C10.0002 85.4605 10.6002 85.9205 11.8102 85.9205H21.7302Z" fill="white"/>
<path d="M30.6602 75.9805H41.9502V79.1405H32.0202V85.9105H41.9502V89.0805H30.6602C28.8502 89.0805 27.9502 88.1705 27.9502 86.3705V78.6905C27.9502 76.8805 28.8602 75.9805 30.6602 75.9805Z" fill="white"/>
<path d="M37.8902 80.9492L39.2302 84.1192H32.0202L30.6602 80.9492H37.8902Z" fill="white"/>
<path d="M58.5599 83.6605L62.6199 77.3405C63.2199 76.4305 64.1199 75.9805 65.3199 75.9805H68.9399V89.0805H64.8799V80.5005L59.4599 89.0805H57.6499L52.2399 80.5005V89.0805H48.1699V75.9805H51.7899C52.9899 75.9805 53.8899 76.4305 54.4899 77.3405L58.5599 83.6605Z" fill="white"/>
<path d="M77.8899 75.9805H89.1699V79.1405H79.2399V85.9105H89.1699V89.0805H77.8899C76.0799 89.0805 75.1699 88.1705 75.1699 86.3705V78.6905C75.1699 76.8805 76.0699 75.9805 77.8899 75.9805Z" fill="white"/>
<path d="M85.1001 80.9492L86.4601 84.1192H79.2401L77.8901 80.9492H85.1001Z" fill="white"/>
<path d="M98.9999 75.9805C100.21 75.9805 101.27 76.4305 102.16 77.3405L108.93 85.0205V75.9905H113V89.0905H109.38C108.18 89.0905 107.13 88.6405 106.23 87.7305L99.4599 80.0505V89.0805H95.3999V75.9805H99.0099H98.9999Z" fill="white"/>
<path d="M124.65 78.1705L128.7 79.0605V89.0805H124.65V78.1705ZM119.23 75.9805H134.12V79.1405H119.23V75.9805Z" fill="white"/>
<path d="M22.51 65.7583L18.22 54.4983H13.93L9.64 65.7583L4.82 54.4983H0L5.9 68.4383C6.25 69.5083 7.26 70.0483 8.9 70.0483H12.33L16.08 60.3883L19.3 68.4283C19.65 69.4983 20.73 70.0383 22.52 70.0383H25.73L32.16 54.4883H27.34L22.51 65.7483V65.7583Z" fill="white"/>
<path d="M48.8798 64.68C48.8798 65.75 48.1598 66.29 46.7298 66.29H40.2998C38.8698 66.29 38.1498 65.74 38.1498 64.68V59.85C38.1498 58.78 38.8598 58.24 40.2998 58.24H46.7298C48.1598 58.24 48.8798 58.77 48.8798 59.85V64.68ZM48.8798 54.5H38.1598C34.9398 54.5 33.3398 55.93 33.3398 58.78V65.76C33.3398 68.62 34.9498 70.05 38.1598 70.05H48.8798C52.0898 70.05 53.7098 68.62 53.7098 65.76V58.78C53.7098 55.92 52.0998 54.5 48.8798 54.5Z" fill="white"/>
<path d="M95.52 57.7117V66.8317C95.52 68.9717 96.59 70.0517 98.73 70.0517H112.13V66.3017H100.34V64.1517H108.18L106.57 60.4017H100.34V58.2617H112.13V54.5117H98.73C96.59 54.5117 95.52 55.5817 95.52 57.7317" fill="white"/>
<path d="M88.0199 54.5H72.4599V65.22L64.4199 56.1C63.3399 55.03 62.0999 54.5 60.6699 54.5H56.3799V70.05H61.1999V59.32L69.2399 68.43C70.3099 69.5 71.5599 70.04 72.9899 70.04H77.2799V58.24H85.8599C87.2899 58.24 88.0099 58.77 88.0099 59.85V64.68C88.0099 65.75 87.2999 66.29 85.8599 66.29H79.5399L81.1499 70.05H88.0099C91.2299 70.05 92.8299 68.62 92.8299 65.76V58.78C92.8299 55.92 91.2299 54.5 88.0099 54.5" fill="white"/>
<path d="M121.27 61.9709L128.79 70.0609H134.12L130 65.6909C132.75 65.5009 134.12 64.0809 134.12 61.4309V58.7509C134.12 55.8909 132.51 54.4609 129.3 54.4609H114.83V70.0209H119.65V58.2209H127.16C128.59 58.2209 129.3 58.7609 129.3 59.8309V60.3609C129.3 61.4309 128.59 61.9709 127.16 61.9709H121.28H121.27Z" fill="white"/>
</g>
<defs>
<clipPath id="clip0_4086_90119">
<rect width="134.12" height="89.09" fill="white"/>
</clipPath>
</defs>
</svg>
